<?xml version="1.0" encoding="UTF-8" standalone="no"?>
<!-- Created with Inkscape (http://www.inkscape.org/) -->

<svg
   width="182mm"
   height="70mm"
   viewBox="0 0 182 70"
   version="1.1"
   id="svg5"
   inkscape:version="1.2.2 (732a01da63, 2022-12-09)"
   sodipodi:docname="gites.svg"
   xmlns:inkscape="http://www.inkscape.org/namespaces/inkscape"
   xmlns:sodipodi="http://sodipodi.sourceforge.net/DTD/sodipodi-0.dtd"
   xmlns="http://www.w3.org/2000/svg"
   xmlns:svg="http://www.w3.org/2000/svg">
  <sodipodi:namedview
     id="namedview7"
     pagecolor="#505050"
     bordercolor="#eeeeee"
     borderopacity="1"
     inkscape:showpageshadow="0"
     inkscape:pageopacity="0"
     inkscape:pagecheckerboard="0"
     inkscape:deskcolor="#505050"
     inkscape:document-units="mm"
     showgrid="false"
     inkscape:zoom="0.70710678"
     inkscape:cx="399.51533"
     inkscape:cy="591.14127"
     inkscape:window-width="3440"
     inkscape:window-height="1377"
     inkscape:window-x="-8"
     inkscape:window-y="-8"
     inkscape:window-maximized="1"
     inkscape:current-layer="layer1" />
  <defs
     id="defs2">
    <inkscape:perspective
       sodipodi:type="inkscape:persp3d"
       inkscape:vp_x="4.2333343 : -41.723088 : 1"
       inkscape:vp_y="-223.34797 : -156.17083 : 1"
       inkscape:vp_z="116.6021 : -126.91872 : 1"
       inkscape:persp3d-origin="105.00001 : -127.99997 : 1"
       id="perspective615" />
  </defs>
  <g
     inkscape:label="Warstwa 1"
     inkscape:groupmode="layer"
     id="layer1">
    <g
       aria-label="SenseHat"
       transform="matrix(0.80800226,0,0,1.2376203,-13.844562,-92.421802)"
       id="text1074"
       style="font-size:58.4839px;fill:#333333;stroke-width:4.87364">
      <path
         d="m 19.770396,111.07904 6.767912,-0.79959 q 1.142264,8.0244 7.481827,8.0244 3.141225,0 4.94029,-1.62772 1.799066,-1.65628 1.799066,-4.08359 0,-1.42783 -0.628245,-2.42731 -0.628245,-0.99948 -1.913292,-1.62773 -1.285047,-0.6568 -6.225337,-2.1703 -4.426271,-1.34216 -6.482346,-2.91277 -2.056074,-1.57062 -3.284008,-4.112152 -1.199377,-2.570093 -1.199377,-5.511422 0,-3.426791 1.542056,-6.168223 1.570613,-2.741433 4.312045,-4.140706 2.741433,-1.399273 6.767913,-1.399273 6.053997,0 9.452231,3.284008 3.398234,3.284008 3.598131,9.395118 l -6.939252,0.371236 q -0.456905,-3.369678 -1.970405,-4.711837 -1.513499,-1.34216 -4.312045,-1.34216 -2.798546,0 -4.312045,1.17082 -1.5135,1.17082 -1.5135,2.912772 0,1.713396 1.370717,2.884216 1.370716,1.17082 6.311006,2.570093 5.225857,1.5135 7.53894,3.19834 2.341641,1.65628 3.569574,4.31204 1.227934,2.62721 1.227934,6.39668 0,5.45431 -3.369678,9.16667 -3.341121,3.71235 -10.480269,3.71235 -12.622013,0 -14.049843,-14.36396 z"
         style="font-weight:bold;font-stretch:condensed;font-family:Arial;-inkscape-font-specification:'Arial Bold Condensed'"
         id="path1109" />
      <path
         d="m 67.888251,115.0484 6.53946,1.34216 q -1.313603,4.56906 -4.083593,6.79647 -2.769989,2.19886 -6.739355,2.19886 -5.511422,0 -8.509864,-3.6838 -3.541018,-4.28349 -3.541018,-11.99377 0,-7.59605 3.569574,-12.165107 3.026999,-3.85514 7.824506,-3.85514 5.340083,0 8.367081,3.94081 3.483904,4.511937 3.483904,13.307367 l -0.02856,0.91382 H 58.293237 q 0.05711,3.59813 1.599169,5.56853 1.570613,1.97041 3.76947,1.97041 3.169782,0 4.226375,-4.34061 z m 0.371236,-8.11007 q -0.08567,-3.54102 -1.513499,-5.31152 -1.42783,-1.79907 -3.398234,-1.79907 -2.084632,0 -3.512461,1.85618 -1.456386,1.88473 -1.42783,5.25441 z"
         style="font-weight:bold;font-stretch:condensed;font-family:Arial;-inkscape-font-specification:'Arial Bold Condensed'"
         id="path1111" />
      <path
         d="m 102.75585,124.70053 h -6.596575 v -15.47767 q 0,-4.65473 -0.371236,-6.19678 -0.371236,-1.54206 -1.399273,-2.3702 -0.999481,-0.82814 -2.284527,-0.82814 -1.656283,0 -2.998442,1.08515 -1.34216,1.05659 -1.884735,2.94133 -0.542576,1.88473 -0.542576,7.11059 v 13.73572 H 80.081914 V 94.373431 h 6.11111 v 4.454829 q 1.627726,-2.570094 3.655244,-3.85514 2.056075,-1.285047 4.540498,-1.285047 2.884216,0 4.85462,1.5135 1.998964,1.484942 2.741434,3.855139 0.77103,2.341638 0.77103,6.796468 z"
         style="font-weight:bold;font-stretch:condensed;font-family:Arial;-inkscape-font-specification:'Arial Bold Condensed'"
         id="path1113" />
      <path
         d="m 107.12501,116.04788 6.59657,-1.22793 q 0.8567,4.76895 5.31153,4.76895 2.37019,0 3.54101,-0.91381 1.17082,-0.91381 1.17082,-2.3702 0,-0.99948 -0.51401,-1.57061 -0.54258,-0.57113 -2.14175,-0.99948 -8.11007,-2.14174 -10.30893,-4.08359 -2.74143,-2.42731 -2.74143,-6.65369 0,-4.226374 2.68432,-6.76791 2.68432,-2.541537 7.79595,-2.541537 4.88317,0 7.42471,1.913292 2.54154,1.884735 3.56958,6.111115 l -6.19679,1.39927 q -0.82814,-3.655245 -4.68328,-3.655245 -2.42731,0 -3.45534,0.713915 -1.02804,0.68536 -1.02804,1.79906 0,0.99949 0.94237,1.65629 0.94236,0.68536 5.8541,2.05607 5.51142,1.54206 7.48182,3.74091 1.94185,2.19886 1.94185,5.85411 0,4.39771 -3.027,7.25337 -2.99844,2.85566 -8.30996,2.85566 -4.82607,0 -7.88162,-2.3702 -3.05556,-2.39875 -4.02648,-6.96781 z"
         style="font-weight:bold;font-stretch:condensed;font-family:Arial;-inkscape-font-specification:'Arial Bold Condensed'"
         id="path1115" />
      <path
         d="m 150.53103,115.0484 6.53946,1.34216 q -1.3136,4.56906 -4.08359,6.79647 -2.76999,2.19886 -6.73936,2.19886 -5.51142,0 -8.50986,-3.6838 -3.54102,-4.28349 -3.54102,-11.99377 0,-7.59605 3.56957,-12.165107 3.027,-3.85514 7.82451,-3.85514 5.34008,0 8.36708,3.94081 3.4839,4.511937 3.4839,13.307367 l -0.0285,0.91382 h -16.47715 q 0.0571,3.59813 1.59916,5.56853 1.57062,1.97041 3.76947,1.97041 3.16979,0 4.22638,-4.34061 z m 0.37124,-8.11007 q -0.0857,-3.54102 -1.5135,-5.31152 -1.42783,-1.79907 -3.39824,-1.79907 -2.08463,0 -3.51246,1.85618 -1.45638,1.88473 -1.42783,5.25441 z"
         style="font-weight:bold;font-stretch:condensed;font-family:Arial;-inkscape-font-specification:'Arial Bold Condensed'"
         id="path1117" />
      <path
         d="M 162.83891,124.70053 V 82.836569 h 6.91069 v 16.477153 h 13.59294 V 82.836569 h 6.93925 v 41.863961 h -6.93925 V 106.39576 H 169.7496 v 18.30477 z"
         style="font-weight:bold;font-stretch:condensed;font-family:Arial;-inkscape-font-specification:'Arial Bold Condensed'"
         id="path1119" />
      <path
         d="m 202.30413,103.62577 -5.96833,-1.31361 q 1.08515,-4.597607 3.56957,-6.596569 2.51298,-2.027518 7.19626,-2.027518 4.16926,0 6.36812,1.170821 2.19886,1.17082 3.14123,3.198338 0.94236,1.998958 0.94236,7.310488 l -0.0571,9.36656 q 0,3.94081 0.31412,5.88266 0.31413,1.91329 1.17082,4.08359 h -6.5109 l -0.8567,-3.31256 q -1.68483,1.99896 -3.62668,2.99844 -1.91329,0.99948 -4.0836,0.99948 -3.62668,0 -5.93977,-2.42731 -2.31308,-2.45587 -2.31308,-6.5109 0,-2.5701 0.94237,-4.48339 0.94236,-1.91329 2.65576,-3.05555 1.7134,-1.14227 5.48287,-2.02752 4.56905,-1.0566 6.36812,-1.97041 0,-2.51298 -0.37124,-3.284 -0.34268,-0.79959 -1.3136,-1.28505 -0.94237,-0.51402 -2.68432,-0.51402 -1.77051,0 -2.79855,0.79958 -0.99948,0.79959 -1.62772,2.99845 z m 8.79543,6.5109 q -1.25649,0.51402 -3.91226,1.19938 -3.05555,0.79958 -3.99792,1.77051 -0.94237,0.97092 -0.94237,2.51298 0,1.74195 1.02804,2.94132 1.05659,1.17082 2.62721,1.17082 1.39927,0 2.76999,-0.94236 1.37071,-0.97093 1.88473,-2.28453 0.54258,-1.3136 0.54258,-4.76895 z"
         style="font-weight:bold;font-stretch:condensed;font-family:Arial;-inkscape-font-specification:'Arial Bold Condensed'"
         id="path1121" />
      <path
         d="m 235.42977,94.373431 v 6.396679 h -4.48338 v 12.22222 q 0,3.96936 0.1999,4.59761 0.39979,1.14226 1.62772,1.14226 0.91381,0 2.62721,-0.77102 l 0.57113,6.22533 q -2.28453,1.19938 -5.16874,1.19938 -2.51298,0 -4.02648,-1.19938 -1.5135,-1.19937 -2.02752,-3.45535 -0.39979,-1.65628 -0.39979,-6.73935 v -13.2217 h -3.027 v -6.396679 h 3.027 v -6.02544 l 6.59657,-4.683281 v 10.708721 z"
         style="font-weight:bold;font-stretch:condensed;font-family:Arial;-inkscape-font-specification:'Arial Bold Condensed'"
         id="path1123" />
    </g>
    <g
       aria-label="SenseHat"
       transform="matrix(0.80800226,0,0,1.2376203,-13.844562,-92.421802)"
       id="text1079"
       style="font-size:58.4839px;fill:#ffffff;stroke-width:4.87364">
      <path
         d="m 23.938201,110.02086 6.767912,-0.79958 q 1.142264,8.0244 7.481827,8.0244 3.141225,0 4.94029,-1.62773 1.799065,-1.65628 1.799065,-4.08359 0,-1.42783 -0.628245,-2.42731 -0.628245,-0.99948 -1.913291,-1.62772 -1.285047,-0.65681 -6.225337,-2.1703 -4.426272,-1.34216 -6.482346,-2.91278 -2.056075,-1.57061 -3.284008,-4.112146 -1.199377,-2.570093 -1.199377,-5.511422 0,-3.426791 1.542056,-6.168224 1.570612,-2.741432 4.312045,-4.140705 2.741433,-1.399273 6.767912,-1.399273 6.053998,0 9.452232,3.284008 3.398234,3.284008 3.59813,9.395118 l -6.939251,0.371236 q -0.456906,-3.369678 -1.970405,-4.711838 -1.513499,-1.342159 -4.312045,-1.342159 -2.798546,0 -4.312046,1.17082 -1.513499,1.17082 -1.513499,2.912772 0,1.713396 1.370717,2.884216 1.370716,1.17082 6.311006,2.570093 5.225856,1.513499 7.53894,3.198334 2.341641,1.65629 3.569574,4.31205 1.227933,2.62721 1.227933,6.39668 0,5.4543 -3.369677,9.16666 -3.341121,3.71236 -10.480269,3.71236 -12.622013,0 -14.049843,-14.36397 z"
         style="font-weight:bold;font-stretch:condensed;font-family:Arial;-inkscape-font-specification:'Arial Bold Condensed'"
         id="path1126" />
      <path
         d="m 72.056056,113.99023 6.539459,1.34216 q -1.313603,4.56905 -4.083592,6.79647 -2.769989,2.19886 -6.739355,2.19886 -5.511422,0 -8.509865,-3.68381 -3.541017,-4.28348 -3.541017,-11.99376 0,-7.59606 3.569574,-12.165111 3.026999,-3.85514 7.824506,-3.85514 5.340082,0 8.367081,3.94081 3.483904,4.511941 3.483904,13.307371 l -0.02856,0.91381 H 62.461042 q 0.05711,3.59813 1.599169,5.56854 1.570612,1.9704 3.76947,1.9704 3.169781,0 4.226375,-4.3406 z m 0.371236,-8.11007 q -0.08567,-3.54102 -1.513499,-5.31153 -1.42783,-1.799064 -3.398235,-1.799064 -2.084631,0 -3.51246,1.856174 -1.456387,1.88474 -1.42783,5.25442 z"
         style="font-weight:bold;font-stretch:condensed;font-family:Arial;-inkscape-font-specification:'Arial Bold Condensed'"
         id="path1128" />
      <path
         d="m 106.92365,123.64236 h -6.59657 v -15.47768 q 0,-4.65472 -0.371236,-6.19678 -0.371236,-1.54205 -1.399273,-2.370193 -0.999481,-0.828141 -2.284528,-0.828141 -1.656282,0 -2.998442,1.085151 -1.342159,1.056593 -1.884735,2.941333 -0.542575,1.88473 -0.542575,7.11059 v 13.73572 H 84.249719 V 93.315257 h 6.11111 v 4.454829 q 1.627726,-2.570094 3.655244,-3.85514 2.056074,-1.285047 4.540498,-1.285047 2.884219,0 4.854619,1.513499 1.99896,1.484943 2.74143,3.85514 0.77103,2.341642 0.77103,6.796472 z"
         style="font-weight:bold;font-stretch:condensed;font-family:Arial;-inkscape-font-specification:'Arial Bold Condensed'"
         id="path1130" />
      <path
         d="m 111.29281,114.98971 6.59658,-1.22793 q 0.85669,4.76895 5.31152,4.76895 2.3702,0 3.54102,-0.91381 1.17082,-0.91381 1.17082,-2.3702 0,-0.99948 -0.51402,-1.57061 -0.54258,-0.57114 -2.14174,-0.99948 -8.11008,-2.14175 -10.30893,-4.0836 -2.74144,-2.42731 -2.74144,-6.65368 0,-4.226378 2.68432,-6.767914 2.68432,-2.541537 7.79595,-2.541537 4.88318,0 7.42472,1.913292 2.54153,1.884735 3.56957,6.111109 l -6.19678,1.39927 q -0.82814,-3.655239 -4.68328,-3.655239 -2.42731,0 -3.45535,0.713914 -1.02804,0.685358 -1.02804,1.799065 0,0.99948 0.94237,1.65628 0.94237,0.68536 5.8541,2.05608 5.51142,1.54205 7.48183,3.74091 1.94185,2.19886 1.94185,5.8541 0,4.39772 -3.027,7.25338 -2.99844,2.85566 -8.30997,2.85566 -4.82606,0 -7.88162,-2.3702 -3.05555,-2.39876 -4.02648,-6.96781 z"
         style="font-weight:bold;font-stretch:condensed;font-family:Arial;-inkscape-font-specification:'Arial Bold Condensed'"
         id="path1132" />
      <path
         d="m 154.69883,113.99023 6.53946,1.34216 q -1.3136,4.56905 -4.08359,6.79647 -2.76999,2.19886 -6.73935,2.19886 -5.51143,0 -8.50987,-3.68381 -3.54102,-4.28348 -3.54102,-11.99376 0,-7.59606 3.56958,-12.165111 3.027,-3.85514 7.8245,-3.85514 5.34009,0 8.36709,3.94081 3.4839,4.511941 3.4839,13.307371 l -0.0286,0.91381 h -16.47715 q 0.0571,3.59813 1.59917,5.56854 1.57061,1.9704 3.76947,1.9704 3.16978,0 4.22637,-4.3406 z m 0.37124,-8.11007 q -0.0857,-3.54102 -1.5135,-5.31153 -1.42783,-1.799064 -3.39823,-1.799064 -2.08463,0 -3.51246,1.856174 -1.45639,1.88474 -1.42783,5.25442 z"
         style="font-weight:bold;font-stretch:condensed;font-family:Arial;-inkscape-font-specification:'Arial Bold Condensed'"
         id="path1134" />
      <path
         d="M 167.00671,123.64236 V 81.778395 h 6.9107 v 16.477153 h 13.59294 V 81.778395 h 6.93925 v 41.863965 h -6.93925 v -18.30478 h -13.59294 v 18.30478 z"
         style="font-weight:bold;font-stretch:condensed;font-family:Arial;-inkscape-font-specification:'Arial Bold Condensed'"
         id="path1136" />
      <path
         d="m 206.47193,102.56759 -5.96833,-1.3136 q 1.08515,-4.597612 3.56958,-6.596573 2.51298,-2.027518 7.19626,-2.027518 4.16926,0 6.36812,1.17082 2.19885,1.170821 3.14122,3.198339 0.94237,1.998961 0.94237,7.310482 l -0.0571,9.36657 q 0,3.94081 0.31412,5.88265 0.31412,1.9133 1.17082,4.0836 h -6.5109 l -0.8567,-3.31257 q -1.68484,1.99896 -3.62669,2.99844 -1.91329,0.99949 -4.08359,0.99949 -3.62669,0 -5.93977,-2.42732 -2.31309,-2.45586 -2.31309,-6.5109 0,-2.57009 0.94237,-4.48338 0.94237,-1.91329 2.65576,-3.05556 1.7134,-1.14226 5.48287,-2.02752 4.56905,-1.05659 6.36812,-1.9704 0,-2.51298 -0.37124,-3.28401 -0.34267,-0.799583 -1.3136,-1.285045 -0.94237,-0.514019 -2.68432,-0.514019 -1.77051,0 -2.79854,0.799585 -0.99949,0.799589 -1.62773,2.998439 z m 8.79543,6.51091 q -1.25649,0.51401 -3.91225,1.19937 -3.05556,0.79959 -3.99793,1.77051 -0.94236,0.97093 -0.94236,2.51298 0,1.74195 1.02803,2.94133 1.0566,1.17082 2.62721,1.17082 1.39927,0 2.76999,-0.94237 1.37072,-0.97092 1.88473,-2.28452 0.54258,-1.31361 0.54258,-4.76896 z"
         style="font-weight:bold;font-stretch:condensed;font-family:Arial;-inkscape-font-specification:'Arial Bold Condensed'"
         id="path1138" />
      <path
         d="m 239.59758,93.315257 v 6.396677 h -4.48339 v 12.222216 q 0,3.96937 0.1999,4.59762 0.39979,1.14226 1.62773,1.14226 0.91381,0 2.6272,-0.77103 l 0.57113,6.22534 q -2.28452,1.19938 -5.16874,1.19938 -2.51298,0 -4.02648,-1.19938 -1.5135,-1.19938 -2.02752,-3.45535 -0.39979,-1.65628 -0.39979,-6.73935 V 99.711934 h -3.027 v -6.396677 h 3.027 v -6.02544 l 6.59657,-4.683281 v 10.708721 z"
         style="font-weight:bold;font-stretch:condensed;font-family:Arial;-inkscape-font-specification:'Arial Bold Condensed'"
         id="path1140" />
    </g>
  </g>
</svg>
